<svg width="130" height="130" viewBox="0 0 130 130" fill="none" xmlns="http://www.w3.org/2000/svg">
<path d="M126.352 0.0169544C125.688 -0.0133029 125.023 -0.00305529 124.361 0.0476464C112.697 1.15267 103.893 8.6152 103.855 17.4012C103.85 18.5586 103.855 22.2583 103.851 24.7934L83.9506 27.7654C83.7872 24.3305 83.0087 20.9529 81.6522 17.7931C79.1298 11.9197 74.7347 7.04614 69.1524 3.93251C63.57 0.818876 57.1142 -0.359803 50.7917 0.580294L24.6565 4.48039C17.9577 5.51026 11.8336 8.86048 7.35339 13.946C2.8732 19.0316 0.321673 25.5293 0.144342 32.3046H0.0107317V33.0485L0.00350952 33.0883V76.2709L0.0107317 76.2565V87.5342H1.06156C1.44253 87.5342 1.7892 87.5342 2.13044 87.5487C2.46989 87.5631 2.7335 87.5631 3.026 87.5631C3.39433 87.5631 3.75363 87.5631 4.11835 87.518C15.7822 86.4111 24.5933 78.9504 24.6294 70.1626C24.6348 69.1803 24.6294 65.2929 24.633 62.9871L44.7684 59.9772C44.8479 63.4115 45.5448 66.8024 46.8213 69.9929C49.3461 75.8665 53.7429 80.74 59.3265 83.8538C64.9102 86.9675 71.367 88.1467 77.6908 87.2074L103.822 83.3019C110.678 82.2792 116.938 78.8279 121.462 73.5767C125.987 68.3255 128.474 61.6237 128.472 54.6922V50.5719H128.479V49.5065C128.483 41.923 128.483 26.366 128.479 14.8156V0.0295866H127.417C127.036 0.0295866 126.692 0.0313991 126.352 0.0169544ZM126.303 2.1313H126.358V15.3663C122.508 22.1463 111.243 23.6937 111.108 23.71L105.976 24.4756C105.98 22.2005 105.976 18.4575 105.98 17.4012C106.016 9.70939 114 3.15508 124.565 2.15297C125.142 2.11144 125.724 2.10422 126.303 2.1313ZM55.0691 2.38228C60.3126 2.38491 65.4405 3.92367 69.8192 6.80845C74.198 9.69324 77.6356 13.7976 79.7076 18.6146C80.9936 21.6134 81.7182 24.8227 81.8454 28.0831L69.1343 29.9808C65.0976 30.6337 61.2453 32.1352 57.8316 34.3865C58.2107 33.3952 58.4635 32.3606 58.5845 31.3061C58.76 29.2473 58.4245 27.177 57.6077 25.2791C56.5073 22.715 54.5892 20.5873 52.1526 19.2279C49.7161 17.8685 46.8981 17.3538 44.1383 17.7642L33.2924 19.3838C30.3069 19.8458 27.5837 21.3566 25.6115 23.6451C23.6394 25.9337 22.5473 28.8502 22.5313 31.8713V34.4316C22.5313 39.4801 22.5259 52.0001 22.5169 61.1364L17.075 61.9489C16.6254 62.0031 7.34306 63.2598 2.13406 68.8048V37.0154H2.13044V33.0883C2.13044 19.9218 11.9472 8.52674 24.9706 6.58211L51.1204 2.67479C52.4277 2.48079 53.7475 2.38302 55.0691 2.38228ZM126.352 18.9577L126.348 54.6904C126.348 67.855 116.534 79.252 103.508 81.1966L77.373 85.0985C71.5134 85.974 65.5288 84.8837 60.3545 81.9979C55.1801 79.1121 51.1076 74.5933 48.7731 69.1478C47.5536 66.1329 46.8964 62.9201 46.834 59.6684L59.332 57.7997C63.1931 57.2294 66.8976 55.8784 70.2194 53.8292C70.3567 53.7136 70.4921 53.5944 70.6275 53.4771C70.2634 54.4415 70.0184 55.4469 69.898 56.4707C69.7208 58.5293 70.0551 60.5997 70.8712 62.4978C71.9723 65.0615 73.8909 67.1887 76.3278 68.5475C78.7647 69.9062 81.5828 70.4202 84.3424 70.0091L95.1902 68.3877C98.1759 67.9252 100.899 66.4137 102.871 64.1244C104.843 61.8352 105.934 58.918 105.949 55.8966V47.1882L105.962 47.1647C105.962 42.2517 105.967 33.9333 105.973 26.6278L111.408 25.8171C111.859 25.763 121.145 24.5063 126.352 18.9577ZM46.0161 19.7521C47.4678 19.7535 48.9035 20.056 50.2323 20.6406C51.5612 21.2252 52.7543 22.0791 53.7363 23.1483C54.7183 24.2176 55.4678 25.4789 55.9375 26.8526C56.4071 28.2263 56.5866 29.6825 56.4648 31.1292C56.2685 33.4866 55.2817 35.7085 53.6643 37.4347C52.047 39.1609 49.894 40.2901 47.5544 40.6393L30.1579 43.2393C29.9882 43.261 26.9784 43.6636 24.6565 45.341V31.8713C24.6696 29.359 25.5779 26.9336 27.2183 25.0308C28.8587 23.1279 31.1237 21.8722 33.6065 21.4891L44.4615 19.8641C44.9761 19.7882 45.4961 19.7503 46.0161 19.7521ZM103.851 26.9456C103.848 31.6167 103.842 34.5652 103.844 39.3591C102.351 41.8183 98.0971 42.425 98.0303 42.425L80.614 45.0269C79.8325 45.2294 79.0724 45.5069 78.3444 45.8556C81.4306 41.6841 83.3422 36.7616 83.8802 31.6004C83.929 31.01 83.9398 30.4665 83.9542 29.9158L103.851 26.9456ZM81.8237 30.2318C81.8074 30.6218 81.8056 30.9956 81.7713 31.4072C81.0491 39.8881 76.3547 47.5276 69.1144 52.0019C66.0362 53.9007 62.6032 55.1522 59.025 55.6799L46.657 57.5288C46.6751 57.1388 46.6769 56.7632 46.7112 56.3552C47.2113 50.337 49.7304 44.6643 53.8597 40.2579C57.9891 35.8515 63.4863 32.9699 69.4593 32.0807L81.8237 30.2318ZM50.5137 41.775C47.2596 45.9441 45.2113 50.9259 44.5915 56.1782C44.5427 56.7596 44.5319 57.3013 44.5193 57.8502L24.6366 60.8186C24.642 56.3516 24.642 53.6305 24.642 48.3961C26.1442 45.9459 30.3873 45.341 30.4504 45.341L47.8686 42.7374C48.784 42.5171 49.6705 42.1957 50.5137 41.775ZM103.822 42.434V55.8984C103.809 58.4105 102.901 60.8357 101.262 62.739C99.6224 64.6423 97.3584 65.8991 94.876 66.2842L84.0283 67.9038C81.7333 68.2457 79.3898 67.8185 77.3631 66.6887C75.3365 65.5589 73.7408 63.7901 72.8248 61.6582V61.651C72.1497 60.074 71.8725 58.3552 72.0178 56.6459C72.1571 55.0075 72.6781 53.4244 73.539 52.0235C74.4 50.6226 75.577 49.4428 76.9758 48.5785C78.1802 47.8347 79.524 47.345 80.9245 47.1394L98.321 44.5357C98.4907 44.5141 101.502 44.1096 103.822 42.434ZM22.5133 63.3031C22.5097 65.385 22.5133 69.2435 22.5097 70.1517C22.4772 77.84 14.4894 84.3979 3.92516 85.4C3.34523 85.4397 2.76354 85.447 2.1828 85.4217H2.13406V72.3871C5.99973 65.6342 17.223 64.0886 17.3566 64.0723L22.5133 63.3031Z" fill="white"/>
<path d="M0 115.406C0.00604241 113.675 0.300055 111.957 0.869992 110.323C1.42728 108.672 2.28326 107.138 3.39525 105.797C4.5191 104.451 5.902 103.345 7.46173 102.545C9.1648 101.686 11.0516 101.255 12.9587 101.29C15.4003 101.29 17.4824 101.869 19.205 103.025C20.8764 104.122 22.2108 105.66 23.0597 107.47L21.4435 108.426C21.0034 107.52 20.4221 106.69 19.7215 105.966C18.5005 104.709 16.9387 103.836 15.2281 103.454C14.432 103.27 13.6177 103.176 12.8006 103.174C11.1892 103.14 9.59567 103.517 8.17043 104.27C6.85747 104.98 5.70282 105.951 4.77681 107.121C3.84251 108.306 3.13047 109.65 2.67515 111.089C2.2067 112.525 1.96646 114.026 1.96319 115.536C1.95491 118.747 3.07345 121.858 5.12383 124.328C6.08823 125.47 7.27005 126.408 8.60054 127.089C9.93467 127.781 11.417 128.137 12.9196 128.127C13.7775 128.122 14.6318 128.015 15.4644 127.808C16.3413 127.596 17.185 127.265 17.9717 126.824C18.7933 126.355 19.5461 125.775 20.2086 125.1C20.9157 124.369 21.4976 123.527 21.9307 122.607L23.6283 123.445C23.1725 124.494 22.5324 125.453 21.7384 126.276C20.9565 127.079 20.0646 127.767 19.0893 128.319C18.1161 128.876 17.0721 129.3 15.9857 129.577C14.9336 129.85 13.8516 129.99 12.7648 129.994C10.9683 130.014 9.19636 129.576 7.61651 128.72C6.07198 127.878 4.70363 126.747 3.58587 125.388C1.28591 122.566 0.0210766 119.042 0.0016292 115.401L0 115.406Z" fill="white"/>
<path d="M92.7812 106.155C91.0075 104.108 88.5007 103.084 85.2608 103.084C82.5889 103.084 80.6415 103.609 79.4185 104.66C78.1966 105.709 77.5867 107.125 77.5889 108.907C77.5611 109.684 77.7197 110.456 78.0516 111.159C78.3885 111.789 78.8866 112.318 79.495 112.693C80.2662 113.17 81.1018 113.533 81.9763 113.772C82.9799 114.065 84.1877 114.37 85.5997 114.688C87.0659 115.007 88.3965 115.359 89.5912 115.745C90.6732 116.076 91.7 116.567 92.6378 117.2C93.4447 117.753 94.1064 118.492 94.5668 119.355C95.0457 120.334 95.2773 121.416 95.2413 122.505C95.2674 123.635 95.0227 124.756 94.5277 125.773C94.0569 126.7 93.3695 127.5 92.5238 128.104C91.5915 128.762 90.546 129.243 89.4397 129.522C88.1354 129.853 86.7937 130.013 85.4481 129.999C81.1829 129.999 77.5737 128.59 74.6205 125.773L75.6632 124.139C76.855 125.413 78.2993 126.424 79.904 127.109C81.6839 127.863 83.6018 128.236 85.5345 128.205C87.9262 128.205 89.7959 127.754 91.1438 126.85C92.4928 125.946 93.1678 124.578 93.1689 122.744C93.1944 121.92 93.0093 121.103 92.6313 120.37C92.2392 119.686 91.6896 119.105 91.0282 118.676C90.1978 118.142 89.2961 117.728 88.3497 117.446C87.2701 117.098 86.0102 116.77 84.57 116.46C83.1298 116.153 81.8373 115.813 80.6925 115.442C79.6898 115.139 78.7405 114.682 77.8789 114.086C77.1515 113.582 76.5599 112.906 76.1568 112.118C75.7377 111.199 75.5396 110.195 75.5785 109.186C75.555 108.016 75.7991 106.857 76.292 105.797C76.7579 104.825 77.4394 103.973 78.2846 103.304C79.19 102.598 80.225 102.076 81.3312 101.768C82.6125 101.409 83.9383 101.234 85.2689 101.248C86.8878 101.22 88.4973 101.498 90.0132 102.067C91.4281 102.632 92.7123 103.48 93.7864 104.56L92.7812 106.155Z" fill="white"/>
<path d="M129.994 127.925V129.761H111.75V101.448H129.991V103.284H113.718V114.409H129.991V116.164H113.718V127.927L129.994 127.925Z" fill="white"/>
<path d="M49.1342 103.927L49.9782 101.454H48.2852L36.6361 129.768H38.7597L43.0389 118.761L49.1342 103.927Z" fill="white"/>
<path d="M61.5514 129.768L49.9785 101.454L49.1345 103.927L55.648 120.439L59.4671 129.768H61.5514Z" fill="white"/>
</svg>
