<svg width="192" height="63" viewBox="0 0 192 63" fill="none" xmlns="http://www.w3.org/2000/svg">
<path d="M75.1975 18.1374C81.9975 18.1374 88.6975 14.08 91.1975 11.9019V0.341078C82.1975 -1.16686 77.3642 5.87018 75.1975 9.3887V18.1374Z" fill="white"/>
<path d="M48.7244 61.9577C35.5244 59.9471 32.891 48.3863 33.2244 42.8572C55.6244 40.8466 60.2584 26.8042 59.7584 19.9392C65.7787 19.038 72.7644 18.4313 75.7244 18.4313C82.5244 18.4313 88.6975 14.3739 91.1975 12.1958C91.1975 16.7196 91.7244 32.3016 91.7244 41.3492C91.7244 57.5591 65.2244 64.4709 48.7244 61.9577Z" fill="#F4BC1D"/>
<path d="M0.297506 61.9826C15.2975 60.3073 16.9641 49.584 16.2975 44.39C7.09748 43.9879 1.7975 48.5787 0.297506 50.9244C0.297505 50.9458 0.297096 50.9855 0.296331 51.0419C0.279135 52.3091 0.0821092 62.0067 0.297506 61.9826Z" fill="#F4BC1D"/>
<path d="M16.6433 45.1451C7.44325 44.743 1.69868 49.5591 0.198685 51.9048C-0.247065 44.0878 0.196308 20.7408 0.19751 17.7249C0.198711 14.709 6.64324 2.90931 30.1421 0.396095C52.1448 -1.95711 58.844 12.0022 59.6773 19.7139C46.9395 21.6209 32.1656 26.9068 33.1433 42.6319C27.1433 43.6439 19.6433 44.729 16.6433 45.1451Z" fill="white"/>
<path d="M75.4412 42.8331L75.1848 29.3293C70.4412 32.2775 62.9411 32.1436 56.9411 33.1489C54.7355 33.5184 46.1975 41.5146 54.6975 48.1606C59.1975 51.6791 74.4412 47.3569 75.4412 42.8331Z" fill="#1F2F46"/>
<path d="M17.1975 19.5098V33.6055L32.1975 30.0654C41.1975 28.0764 44.4491 14.8672 35.6975 13.478C26.1975 11.9701 17.6975 16.9966 17.1975 19.5098Z" fill="#1F2F46"/>
<g filter="url(#filter0_d_326_666)">
<path d="M59.7776 20.238C47.0398 22.145 32.2659 27.4309 33.2436 43.156C55.6436 41.1454 60.2776 27.103 59.7776 20.238Z" fill="url(#paint0_linear_326_666)"/>
</g>
<path d="M192 24.2593H180.437V33.3069M180.437 33.3069H192M180.437 33.3069V42.8572H192" stroke="white"/>
<path d="M166.5 26.4653C163.203 22.7345 155.302 23.8433 155.5 28.9785C155.63 32.3532 159.97 33.347 162.5 34.005C165.03 34.663 167.702 34.4258 168 38.5288C168.298 42.6317 163 45.5659 155 41.042" stroke="white"/>
<path d="M128.149 43.3598L130.035 38.5847L131.92 33.8095L133.805 29.0344L135.691 24.2593L143.735 43.3598" stroke="#F5BD1F"/>
<path d="M118 27.5009C112.5 20.4638 103 25.993 103 33.5326C103 41.0723 113.5 47.1041 118.5 40.067" stroke="white"/>
<defs>
<filter id="filter0_d_326_666" x="29.1975" y="20.238" width="34.6152" height="30.918" filterUnits="userSpaceOnUse" color-interpolation-filters="sRGB">
<feFlood flood-opacity="0" result="BackgroundImageFix"/>
<feColorMatrix in="SourceAlpha" type="matrix" values="0 0 0 0 0 0 0 0 0 0 0 0 0 0 0 0 0 0 127 0" result="hardAlpha"/>
<feOffset dy="4"/>
<feGaussianBlur stdDeviation="2"/>
<feComposite in2="hardAlpha" operator="out"/>
<feColorMatrix type="matrix" values="0 0 0 0 0 0 0 0 0 0 0 0 0 0 0 0 0 0 0.25 0"/>
<feBlend mode="normal" in2="BackgroundImageFix" result="effect1_dropShadow_326_666"/>
<feBlend mode="normal" in="SourceGraphic" in2="effect1_dropShadow_326_666" result="shape"/>
</filter>
<linearGradient id="paint0_linear_326_666" x1="36.6975" y1="27.2751" x2="56.7396" y2="37.2434" gradientUnits="userSpaceOnUse">
<stop stop-color="#F5BD1F"/>
<stop offset="0.705643" stop-color="#FFFEFC"/>
</linearGradient>
</defs>
</svg>
