<svg width="92" height="93" viewBox="0 0 92 93" fill="none" xmlns="http://www.w3.org/2000/svg">
<path d="M0 82.5597C0.00426317 81.3214 0.211701 80.0925 0.613816 78.9233C1.00701 77.7424 1.61093 76.6449 2.39549 75.6854C3.18841 74.7228 4.1641 73.9317 5.26456 73.359C6.46614 72.7446 7.79736 72.4365 9.14286 72.4616C10.8655 72.4616 12.3346 72.8753 13.5499 73.7028C14.7292 74.4871 15.6707 75.5878 16.2696 76.8824L15.1293 77.5666C14.8188 76.9184 14.4087 76.3243 13.9143 75.8066C13.0528 74.9071 11.951 74.2824 10.7441 74.0094C10.1824 73.8778 9.60787 73.8106 9.03136 73.8089C7.89441 73.7848 6.77014 74.0548 5.76458 74.5933C4.83823 75.1014 4.02358 75.7954 3.37024 76.633C2.71105 77.4805 2.20867 78.442 1.88743 79.4711C1.55692 80.4985 1.38742 81.5722 1.38511 82.653C1.37927 84.9494 2.16845 87.1752 3.61507 88.9422C4.2955 89.759 5.12932 90.4306 6.06804 90.9177C7.00932 91.4123 8.05516 91.6671 9.11528 91.6602C9.72059 91.6566 10.3233 91.5799 10.9107 91.4317C11.5295 91.2804 12.1247 91.0435 12.6798 90.7278C13.2594 90.3925 13.7905 89.9775 14.258 89.4946C14.7569 88.972 15.1674 88.3695 15.473 87.7114L16.6707 88.3104C16.3491 89.061 15.8976 89.7471 15.3373 90.3361C14.7857 90.9105 14.1564 91.4026 13.4683 91.7977C12.7816 92.1962 12.0451 92.4988 11.2786 92.6975C10.5363 92.8926 9.77288 92.9928 9.00608 92.9959C7.73857 93.0101 6.48841 92.6964 5.37376 92.0844C4.28403 91.4819 3.31861 90.6728 2.52998 89.7009C0.907261 87.682 0.0148704 85.1607 0.00114947 82.5562L0 82.5597Z" fill="white"/>
<path d="M65.4611 75.9418C64.2097 74.4772 62.441 73.7448 60.1551 73.7448C58.27 73.7448 56.896 74.1205 56.0331 74.8719C55.171 75.6225 54.7407 76.6353 54.7423 77.9104C54.7226 78.4661 54.8346 79.0184 55.0687 79.5212C55.3065 79.972 55.6579 80.3509 56.0872 80.6191C56.6312 80.96 57.2208 81.2198 57.8378 81.3907C58.5459 81.6005 59.398 81.8188 60.3942 82.0457C61.4287 82.2742 62.3675 82.5263 63.2104 82.8021C63.9738 83.0392 64.6982 83.39 65.3599 83.843C65.9292 84.2385 66.3961 84.7675 66.7209 85.385C67.0588 86.0852 67.2222 86.8588 67.1968 87.6379C67.2152 88.4468 67.0426 89.2485 66.6933 89.976C66.3611 90.6391 65.8761 91.2113 65.2794 91.6439C64.6217 92.1145 63.8841 92.4582 63.1035 92.6579C62.1833 92.8947 61.2367 93.0095 60.2873 92.9994C57.278 92.9994 54.7316 91.9916 52.6479 89.976L53.3836 88.807C54.2245 89.7184 55.2435 90.442 56.3757 90.9317C57.6315 91.471 58.9846 91.7382 60.3482 91.7161C62.0357 91.7161 63.3549 91.3929 64.3058 90.7464C65.2576 90.0999 65.7339 89.1209 65.7346 87.8093C65.7526 87.2197 65.622 86.6353 65.3553 86.1111C65.0787 85.6216 64.6909 85.2061 64.2242 84.8989C63.6384 84.5167 63.0022 84.2204 62.3345 84.019C61.5728 83.7703 60.6839 83.5353 59.6677 83.3138C58.6516 83.0939 57.7397 82.8511 56.932 82.5854C56.2245 82.3689 55.5548 82.0417 54.9469 81.6156C54.4337 81.255 54.0163 80.7713 53.7319 80.2077C53.4362 79.5503 53.2964 78.8318 53.3238 78.1097C53.3073 77.2733 53.4795 76.4441 53.8273 75.6854C54.156 74.9903 54.6368 74.3804 55.2331 73.9022C55.8719 73.3969 56.6022 73.0235 57.3826 72.8031C58.2866 72.5461 59.2221 72.4209 60.1609 72.4313C61.303 72.4116 62.4386 72.6105 63.5081 73.0175C64.5064 73.4212 65.4124 74.0281 66.1703 74.8008L65.4611 75.9418Z" fill="white"/>
<path d="M91.716 91.5156V92.8292H78.8442V72.5746H91.7137V73.8881H80.2328V81.8464H91.7137V83.1017H80.2328V91.5168L91.716 91.5156Z" fill="white"/>
<path d="M34.6663 74.3478L35.2618 72.5786H34.0673L25.8484 92.8339H27.3467L30.3659 84.9596L34.6663 74.3478Z" fill="#F4BC1D"/>
<path d="M43.4269 92.8339L35.2618 72.5786L34.6663 74.3478L39.2619 86.1602L41.9564 92.8339H43.4269Z" fill="white"/>
<path d="M0.00236729 61.7605V62.6699C0.845681 62.6699 1.5081 62.7216 2.14887 62.6699C10.2304 61.891 16.3094 54.8888 16.3374 48.7868C16.3544 45.0513 16.3595 41.3165 16.3527 37.5827H0.00364118C-0.00400215 45.0022 0.00236729 54.3217 0.00236729 61.7605Z" fill="#F4BC1D"/>
<path d="M91.7148 2.80655V0.0229634C90.8702 0.0229634 90.209 -0.0287042 89.5683 0.0229634C81.4867 0.801852 75.4065 5.91823 75.3797 12.0228C75.3632 15.7557 75.3619 21.3656 75.3632 25.1011H91.7122C91.7216 17.6713 91.7224 10.2398 91.7148 2.80655Z" fill="white"/>
<path d="M39.6969 0.00868256C38.5529 -0.0171512 37.3873 0.0538917 36.2103 0.232145L17.2395 3.10486C12.4466 3.83031 8.06979 6.27661 4.90579 9.99854C1.7418 13.7205 0.000921367 18.4706 0 23.3844L0 52.0806C2.9516 46.5547 11.7198 45.4155 11.7198 45.4155L32.2867 42.3025L32.2956 42.2999L34.0536 42.0351L42.1874 40.8041C46.6937 40.1218 50.8407 37.9161 53.956 34.5446C57.0712 31.1732 58.9721 26.8337 59.3504 22.2296C59.3976 21.6651 59.4243 21.0929 59.4243 20.5181V20.3773C59.4095 17.6475 58.8546 14.9484 57.7925 12.4399C54.7326 5.20773 47.7097 0.193394 39.6969 0.00868256ZM32.2306 12.8119C33.365 12.7568 34.4986 12.9359 35.5627 13.3382C36.6268 13.7405 37.5992 14.3577 38.4211 15.1524C39.2429 15.9471 39.8971 16.9028 40.3439 17.9614C40.7907 19.0201 41.0209 20.1597 41.0205 21.3112L41.0128 21.3048C41.0137 23.3428 40.2924 25.3133 38.9804 26.8573C37.6684 28.4012 35.853 29.4159 33.865 29.7163L30.488 30.2278L21.2204 31.6357C21.2204 31.6357 17.5746 32.1072 16.3593 34.3999V22.5035C16.3598 20.464 17.0824 18.4926 18.3957 16.9479C19.7089 15.4032 21.5254 14.3879 23.5147 14.0868L31.3861 12.8959C31.6663 12.8532 31.9466 12.8248 32.2306 12.8119Z" fill="white"/>
<path d="M91.7122 10.5942C88.7695 16.1226 79.9976 17.2619 79.9976 17.2619L59.4243 20.3787H59.4204L57.6637 20.6448L49.5261 21.8758C45.0193 22.5576 40.8717 24.7631 37.756 28.1346C34.6402 31.506 32.739 35.8459 32.3605 40.4503C32.3134 41.0148 32.2866 41.587 32.2866 42.1618V42.3H32.293C32.3057 45.0306 32.8599 47.7315 33.921 50.24C37.4166 58.5042 46.0905 63.8725 55.502 62.4465L74.4727 59.5738C79.2665 58.8482 83.644 56.4011 86.8081 52.6781C89.9722 48.9551 91.7125 44.2037 91.7122 39.2891V10.5942ZM75.358 28.2748L75.3733 40.1842C75.3731 42.2238 74.6506 44.1956 73.3373 45.7406C72.0241 47.2855 70.2074 48.301 68.2179 48.6021L60.3376 49.7905C55.2637 50.5616 50.7007 46.5742 50.7045 41.3713C50.7042 39.3339 51.4256 37.3641 52.7372 35.8207C54.0489 34.2773 55.8637 33.263 57.851 32.9624L61.2294 32.4509L70.4943 31.0416C70.4943 31.0416 74.1428 30.5676 75.358 28.2748Z" fill="#F4BC1D"/>
<path d="M42.186 40.8016C46.6925 40.1199 50.8397 37.9148 53.9554 34.5439C57.0711 31.1729 58.9726 26.8337 59.3516 22.2297C59.3988 21.6652 59.4243 21.0943 59.4243 20.5182V20.38L57.6637 20.6461L49.5249 21.8771C45.0183 22.5592 40.871 24.7647 37.7555 28.1362C34.64 31.5077 32.7389 35.8473 32.3605 40.4516C32.3134 41.016 32.2866 41.587 32.2866 42.1631V42.3013L34.0522 42.0352L42.186 40.8016Z" fill="url(#paint0_linear_526_996)"/>
<defs>
<linearGradient id="paint0_linear_526_996" x1="38.982" y1="26.755" x2="52.5992" y2="35.582" gradientUnits="userSpaceOnUse">
<stop stop-color="#F4BC1D"/>
<stop offset="1" stop-color="white"/>
</linearGradient>
</defs>
</svg>
