<svg width="92" height="93" viewBox="0 0 92 93" fill="none" xmlns="http://www.w3.org/2000/svg">
<path d="M89.1505 0.0121289C88.6821 -0.00951672 88.2128 -0.0021857 87.7453 0.0340855C79.5156 0.824604 73.3039 6.16318 73.2771 12.4486C73.2733 13.2766 73.2771 15.9232 73.2746 17.7368L59.2332 19.8629C59.1179 17.4057 58.5686 14.9894 57.6115 12.7289C55.8317 8.52715 52.7307 5.0407 48.7919 2.81325C44.8532 0.585811 40.2981 -0.257398 35.8372 0.415134L17.3969 3.2052C12.6704 3.94196 8.3494 6.33865 5.18831 9.97678C2.02722 13.6149 0.226929 18.2633 0.101809 23.1102H0.00753718V23.6424L0.00244141 23.6708V54.563L0.00753718 54.5527V62.6206H0.748972C1.01777 62.6206 1.26237 62.6207 1.50315 62.631C1.74265 62.6413 1.92864 62.6413 2.13502 62.6413C2.39491 62.6413 2.64842 62.6413 2.90576 62.609C11.1354 61.8172 17.3523 56.4799 17.3778 50.1932C17.3816 49.4906 17.3778 46.7095 17.3803 45.06L31.5873 42.9068C31.6434 45.3636 32.1351 47.7894 33.0358 50.0718C34.8172 54.2737 37.9194 57.7602 41.8591 59.9877C45.7988 62.2152 50.3545 63.0588 54.8164 62.3868L73.2542 59.5929C78.0912 58.8613 82.5081 56.3923 85.7003 52.6356C88.8925 48.879 90.6477 44.0847 90.6461 39.126V36.1783H90.6512V35.4162C90.6537 29.9911 90.6537 18.8619 90.6512 10.5989V0.0211658H89.9021C89.6333 0.0211658 89.39 0.0224625 89.1505 0.0121289ZM89.1161 1.5247H89.1543V10.9928C86.4382 15.8432 78.4901 16.9501 78.3946 16.9618L74.774 17.5094C74.7766 15.8819 74.774 13.2042 74.7766 12.4486C74.802 6.94595 80.4354 2.2571 87.8893 1.5402C88.2969 1.51049 88.7071 1.50533 89.1161 1.5247ZM38.8552 1.70425C42.5549 1.70613 46.173 2.80693 49.2625 4.87066C52.352 6.93439 54.7775 9.87062 56.2394 13.3166C57.1468 15.4619 57.658 17.7578 57.7478 20.0903L48.7792 21.4478C45.931 21.9148 43.2129 22.9891 40.8043 24.5996C41.0718 23.8904 41.2502 23.1503 41.3355 22.3959C41.4594 20.9231 41.2227 19.442 40.6463 18.0842C39.8699 16.25 38.5166 14.7278 36.7974 13.7553C35.0782 12.7828 33.0899 12.4146 31.1427 12.7082L23.4901 13.8669C21.3836 14.1973 19.4623 15.2782 18.0708 16.9154C16.6793 18.5526 15.9087 20.639 15.8974 22.8002V24.6319C15.8974 28.2434 15.8936 37.2001 15.8872 43.736L12.0476 44.3173C11.7304 44.3561 5.18102 45.2551 1.50569 49.2219V26.4803H1.50315V23.6708C1.50315 14.2518 8.42958 6.0999 17.6185 4.70874L36.0691 1.91351C36.9915 1.77472 37.9227 1.70478 38.8552 1.70425ZM89.1505 13.562L89.1479 39.1247C89.1479 48.5424 82.2228 56.6956 73.0325 58.0868L54.5922 60.8781C50.4578 61.5045 46.2353 60.7245 42.5844 58.66C38.9335 56.5956 36.06 53.3629 34.4129 49.4673C33.5525 47.3104 33.0888 45.0121 33.0447 42.6859L41.863 41.349C44.5873 40.941 47.201 39.9745 49.5448 38.5086C49.6417 38.4259 49.7372 38.3406 49.8327 38.2567C49.5759 38.9466 49.403 39.6658 49.3181 40.3983C49.193 41.8709 49.4289 43.3521 50.0047 44.71C50.7816 46.544 52.1353 48.0658 53.8547 49.0378C55.5741 50.0098 57.5625 50.3775 59.5096 50.0834L67.1635 48.9235C69.2702 48.5927 71.1916 47.5113 72.5829 45.8736C73.9742 44.2359 74.7443 42.149 74.7549 39.9875V33.7577L74.7638 33.7409C74.7638 30.2262 74.7676 24.2753 74.7715 19.0491L78.606 18.4692C78.9245 18.4304 85.4764 17.5314 89.1505 13.562ZM32.4676 14.1304C33.4919 14.1313 34.5049 14.3478 35.4425 14.766C36.3801 15.1841 37.2219 15.795 37.9148 16.5599C38.6077 17.3249 39.1365 18.2272 39.4679 19.2099C39.7992 20.1927 39.9259 21.2344 39.8399 22.2693C39.7014 23.9558 39.0052 25.5453 37.864 26.7802C36.7229 28.0151 35.2037 28.8229 33.553 29.0727L21.2786 30.9327C21.1588 30.9482 19.0352 31.2363 17.3969 32.4363V22.8002C17.4061 21.003 18.047 19.2679 19.2044 17.9066C20.3618 16.5454 21.9599 15.647 23.7118 15.373L31.3708 14.2104C31.7338 14.1562 32.1007 14.1291 32.4676 14.1304ZM73.2746 19.2765C73.272 22.6181 73.2682 24.7274 73.2695 28.1569C72.2159 29.9162 69.2145 30.3502 69.1674 30.3502L56.8789 32.2115C56.3276 32.3564 55.7913 32.5549 55.2776 32.8044C57.4551 29.8202 58.8039 26.2987 59.1835 22.6065C59.2179 22.1841 59.2255 21.7953 59.2357 21.4013L73.2746 19.2765ZM57.7325 21.6274C57.721 21.9064 57.7197 22.1738 57.6955 22.4683C57.186 28.5354 53.8737 34.0005 48.7652 37.2014C46.5932 38.5598 44.171 39.455 41.6464 39.8325L32.9199 41.1552C32.9326 40.8762 32.9339 40.6076 32.9581 40.3156C33.3109 36.0103 35.0883 31.9522 38.0019 28.7999C40.9154 25.6476 44.7941 23.5861 49.0085 22.9501L57.7325 21.6274ZM35.641 29.8852C33.3451 32.8677 31.8998 36.4316 31.4625 40.189C31.4281 40.605 31.4204 40.9925 31.4115 41.3852L17.3829 43.5087C17.3867 40.313 17.3867 38.3665 17.3867 34.6218C18.4466 32.869 21.4404 32.4363 21.485 32.4363L33.7747 30.5737C34.4206 30.4161 35.0461 30.1861 35.641 29.8852ZM73.2542 30.3567V39.9888C73.2449 41.7859 72.6043 43.5209 71.4475 44.8825C70.2907 46.2441 68.6933 47.1432 66.9418 47.4187L59.288 48.5773C57.6687 48.8219 56.0152 48.5163 54.5852 47.7081C53.1553 46.8998 52.0294 45.6345 51.3831 44.1093V44.1042C50.9068 42.976 50.7112 41.7464 50.8137 40.5236C50.912 39.3515 51.2796 38.219 51.887 37.2168C52.4945 36.2147 53.325 35.3706 54.3119 34.7523C55.1617 34.2202 56.1099 33.8699 57.098 33.7228L69.3725 31.8602C69.4922 31.8447 71.6172 31.5553 73.2542 30.3567ZM15.8847 45.2861C15.8821 46.7754 15.8847 49.5358 15.8821 50.1855C15.8592 55.6855 10.2233 60.377 2.76945 61.0939C2.36027 61.1223 1.94984 61.1274 1.54009 61.1094H1.50569V51.7846C4.23321 46.9537 12.152 45.848 12.2463 45.8363L15.8847 45.2861Z" fill="black"/>
<path d="M0 82.5597C0.00426336 81.3214 0.21171 80.0925 0.613842 78.9232C1.00705 77.7423 1.611 76.6448 2.39559 75.6854C3.18855 74.7228 4.16428 73.9316 5.26479 73.359C6.46642 72.7445 7.7977 72.4365 9.14326 72.4615C10.866 72.4615 12.3351 72.8753 13.5505 73.7028C14.7298 74.487 15.6713 75.5877 16.2703 76.8824L15.1299 77.5665C14.8194 76.9184 14.4093 76.3243 13.9149 75.8066C13.0534 74.9071 11.9515 74.2824 10.7445 74.0093C10.1828 73.8778 9.60828 73.8105 9.03176 73.8089C7.89476 73.7848 6.77044 74.0547 5.76483 74.5933C4.83844 75.1014 4.02375 75.7953 3.37039 76.633C2.71117 77.4805 2.20877 78.442 1.88751 79.471C1.55699 80.4985 1.38748 81.5722 1.38517 82.6529C1.37933 84.9494 2.16854 87.1752 3.61523 88.9422C4.29569 89.7591 5.12954 90.4306 6.0683 90.9178C7.00963 91.4123 8.05552 91.6671 9.11567 91.6602C9.72101 91.6566 10.3238 91.5799 10.9112 91.4318C11.53 91.2804 12.1252 91.0435 12.6803 90.7278C13.26 90.3925 13.7911 89.9775 14.2586 89.4946C14.7576 88.972 15.1681 88.3695 15.4737 87.7114L16.6715 88.3105C16.3499 89.061 15.8982 89.7471 15.338 90.3362C14.7863 90.9106 14.157 91.4027 13.4689 91.7977C12.7822 92.1962 12.0456 92.4989 11.2791 92.6975C10.5368 92.8926 9.7733 92.9929 9.00647 92.9959C7.73891 93.0102 6.4887 92.6965 5.37399 92.0845C4.28422 91.482 3.31875 90.6728 2.53009 89.7009C0.9073 87.682 0.0148711 85.1607 0.00114952 82.5562L0 82.5597Z" fill="#0B0B0B"/>
<path d="M65.4636 75.9417C64.2121 74.477 62.4434 73.7447 60.1574 73.7447C58.2722 73.7447 56.8981 74.1204 56.0352 74.8718C55.1731 75.6224 54.7428 76.6352 54.7443 77.9103C54.7247 78.466 54.8366 79.0183 55.0708 79.5211C55.3085 79.972 55.66 80.3508 56.0893 80.619C56.6334 80.9599 57.223 81.2198 57.84 81.3906C58.5481 81.6004 59.4003 81.8188 60.3965 82.0456C61.4311 82.2741 62.3698 82.5262 63.2128 82.8021C63.9763 83.0391 64.7007 83.3899 65.3624 83.8429C65.9318 84.2385 66.3986 84.7674 66.7234 85.3849C67.0614 86.0852 67.2248 86.8587 67.1993 87.6379C67.2178 88.4468 67.0452 89.2485 66.6959 89.976C66.3637 90.6391 65.8787 91.2112 65.282 91.6438C64.6242 92.1144 63.8865 92.4582 63.1059 92.6579C62.1857 92.8947 61.239 93.0095 60.2896 92.9994C57.2802 92.9994 54.7336 91.9916 52.6499 89.976L53.3856 88.8069C54.2265 89.7184 55.2456 90.442 56.3778 90.9317C57.6337 91.471 58.9868 91.7382 60.3505 91.7161C62.038 91.7161 63.3573 91.3929 64.3083 90.7464C65.2601 90.0999 65.7364 89.1208 65.7372 87.8092C65.7551 87.2197 65.6246 86.6352 65.3578 86.111C65.0812 85.6216 64.6934 85.206 64.2267 84.8989C63.6409 84.5166 63.0046 84.2204 62.3369 84.0189C61.5751 83.7702 60.6862 83.5352 59.67 83.3138C58.6538 83.0939 57.7419 82.851 56.9342 82.5853C56.2267 82.3688 55.5568 82.0416 54.9489 81.6156C54.4357 81.2549 54.0183 80.7712 53.7339 80.2076C53.4382 79.5502 53.2984 78.8317 53.3258 78.1096C53.3093 77.2732 53.4815 76.444 53.8293 75.6853C54.158 74.9902 54.6388 74.3803 55.2352 73.902C55.874 73.3968 56.6043 73.0234 57.3848 72.8029C58.2888 72.546 59.2243 72.4208 60.1632 72.4311C61.3054 72.4115 62.441 72.6104 63.5105 73.0174C64.5089 73.4211 65.415 74.028 66.1728 74.8007L65.4636 75.9417Z" fill="#0B0B0B"/>
<path d="M91.72 91.5156V92.8291H78.8477V72.5745H91.7177V73.888H80.2363V81.8463H91.7177V83.1016H80.2363V91.5168L91.72 91.5156Z" fill="#0B0B0B"/>
<path d="M34.6679 74.3476L35.2635 72.5784H34.0689L25.8496 92.8338H27.348L30.3673 84.9594L34.6679 74.3476Z" fill="black"/>
<path d="M43.429 92.8338L35.2635 72.5784L34.668 74.3476L39.2638 86.1601L41.9584 92.8338H43.429Z" fill="#0B0B0B"/>
</svg>
